<?xml version="1.0" encoding="UTF-8" standalone="no"?><!DOCTYPE svg PUBLIC "-//W3C//DTD SVG 1.1//EN" "http://www.w3.org/Graphics/SVG/1.1/DTD/svg11.dtd"><svg width="100%" height="100%" viewBox="0 0 604 421" version="1.1" xmlns="http://www.w3.org/2000/svg" xmlns:xlink="http://www.w3.org/1999/xlink" xml:space="preserve" xmlns:serif="http://www.serif.com/" style="fill-rule:evenodd;clip-rule:evenodd;stroke-linejoin:round;stroke-miterlimit:1.41421;"><path d="M0,82.654l0,-5.508l359.821,0l0,-5.113l7.868,7.867l-7.868,7.868l0,-5.114l-359.821,0Z" style="fill:#b0453e;"/><path d="M0,134.004l0,-5.507l359.821,0l0,-5.114l7.868,7.867l-7.868,7.868l0,-5.114l-359.821,0Z" style="fill:#b0453e;"/><path d="M0,185.448l0,-5.507l359.821,0l0,-5.114l7.868,7.867l-7.868,7.868l0,-5.114l-359.821,0Z" style="fill:#b0453e;"/><path d="M0,240.059l0,-5.507l359.821,0l0,-5.114l7.868,7.867l-7.868,7.868l0,-5.114l-359.821,0Z" style="fill:#b0453e;"/><path d="M486.085,0l7.563,0l0,266.454l7.023,0l-10.805,10.805l-10.804,-10.805l7.023,0l0,-266.454Z" style="fill:#5656ae;"/><path d="M486.085,331.184l7.563,0l0,19.698l7.023,0l-10.805,10.805l-10.804,-10.805l7.023,0l0,-19.698Z" style="fill:#d6a524;"/><ellipse cx="92.126" cy="79.9" rx="18.589" ry="18.292" style="fill:none;stroke:#000;stroke-width:3.5px;"/><ellipse cx="31.294" cy="79.9" rx="18.589" ry="18.292" style="fill:none;stroke:#b2b2b2;stroke-width:3.5px;"/><ellipse cx="149.869" cy="79.9" rx="18.589" ry="18.292" style="fill:none;stroke:#000;stroke-width:3.5px;"/><ellipse cx="207.614" cy="79.9" rx="18.589" ry="18.292" style="fill:none;stroke:#000;stroke-width:3.5px;"/><ellipse cx="265.359" cy="79.9" rx="18.589" ry="18.292" style="fill:none;stroke:#000;stroke-width:3.5px;"/><ellipse cx="323.102" cy="79.9" rx="18.589" ry="18.292" style="fill:none;stroke:#000;stroke-width:3.5px;"/><ellipse cx="92.126" cy="131.25" rx="18.589" ry="18.292" style="fill:none;stroke:#000;stroke-width:3.5px;"/><ellipse cx="31.294" cy="131.25" rx="18.589" ry="18.292" style="fill:none;stroke:#b2b2b2;stroke-width:3.5px;"/><ellipse cx="149.869" cy="131.25" rx="18.589" ry="18.292" style="fill:none;stroke:#000;stroke-width:3.5px;"/><ellipse cx="207.614" cy="131.25" rx="18.589" ry="18.292" style="fill:none;stroke:#000;stroke-width:3.5px;"/><ellipse cx="265.359" cy="131.25" rx="18.589" ry="18.292" style="fill:none;stroke:#000;stroke-width:3.5px;"/><ellipse cx="323.102" cy="131.25" rx="18.589" ry="18.292" style="fill:none;stroke:#000;stroke-width:3.5px;"/><ellipse cx="92.126" cy="183.724" rx="18.589" ry="18.292" style="fill:none;stroke:#000;stroke-width:3.5px;"/><ellipse cx="31.294" cy="183.724" rx="18.589" ry="18.292" style="fill:none;stroke:#b2b2b2;stroke-width:3.5px;"/><ellipse cx="149.869" cy="183.724" rx="18.589" ry="18.292" style="fill:none;stroke:#000;stroke-width:3.5px;"/><ellipse cx="207.614" cy="183.724" rx="18.589" ry="18.292" style="fill:none;stroke:#000;stroke-width:3.5px;"/><ellipse cx="265.359" cy="183.724" rx="18.589" ry="18.292" style="fill:none;stroke:#000;stroke-width:3.5px;"/><ellipse cx="323.102" cy="183.724" rx="18.589" ry="18.292" style="fill:none;stroke:#000;stroke-width:3.5px;"/><ellipse cx="92.126" cy="236.677" rx="18.589" ry="18.292" style="fill:none;stroke:#000;stroke-width:3.5px;"/><ellipse cx="31.294" cy="236.677" rx="18.589" ry="18.292" style="fill:none;stroke:#b2b2b2;stroke-width:3.5px;"/><ellipse cx="149.869" cy="236.677" rx="18.589" ry="18.292" style="fill:none;stroke:#000;stroke-width:3.5px;"/><ellipse cx="207.614" cy="236.677" rx="18.589" ry="18.292" style="fill:none;stroke:#000;stroke-width:3.5px;"/><ellipse cx="265.359" cy="236.677" rx="18.589" ry="18.292" style="fill:none;stroke:#000;stroke-width:3.5px;"/><ellipse cx="323.102" cy="236.677" rx="18.589" ry="18.292" style="fill:none;stroke:#000;stroke-width:3.5px;"/><rect x="374.191" y="60.305" width="35.274" height="36.583" style="fill:none;stroke:#b0453e;stroke-width:3.5px;stroke-linecap:round;stroke-miterlimit:1.5;"/><path d="M415.288,82.38l0,-5.507l40.458,0l0,-5.114l7.867,7.867l-7.867,7.868l0,-5.114l-40.458,0Z" style="fill:#1c741d;"/><path d="M415.288,133.73l0,-5.507l40.458,0l0,-5.114l7.867,7.868l-7.867,7.867l0,-5.114l-40.458,0Z" style="fill:#1c741d;"/><path d="M415.288,185.174l0,-5.507l40.458,0l0,-5.114l7.867,7.868l-7.867,7.867l0,-5.114l-40.458,0Z" style="fill:#1c741d;"/><path d="M489.866,58.799l20.987,20.987l-20.987,20.986l-20.986,-20.986l20.986,-20.987Z" style="fill:#1c741d;"/><path d="M489.866,110.651l20.987,20.986l-20.987,20.987l-20.986,-20.987l20.986,-20.986Z" style="fill:#1c741d;"/><path d="M489.866,159.486l20.987,20.986l-20.987,20.987l-20.986,-20.987l20.986,-20.986Z" style="fill:#1c741d;"/><path d="M489.866,215.898l20.987,20.987l-20.987,20.987l-20.986,-20.987l20.986,-20.987Z" style="fill:#1c741d;"/><path d="M489.57,7.757l21.722,21.722l-21.722,21.722l-21.722,-21.722l21.722,-21.722Z" style="fill:#999;"/><path d="M415.288,239.785l0,-5.507l40.458,0l0,-5.114l7.867,7.868l-7.867,7.867l0,-5.114l-40.458,0Z" style="fill:#1c741d;"/><rect x="374.191" y="111.655" width="35.274" height="36.583" style="fill:none;stroke:#b0453e;stroke-width:3.5px;stroke-linecap:round;stroke-miterlimit:1.5;"/><rect x="374.191" y="164.129" width="35.274" height="36.583" style="fill:none;stroke:#b0453e;stroke-width:3.5px;stroke-linecap:round;stroke-miterlimit:1.5;"/><rect x="374.191" y="217.082" width="35.274" height="36.583" style="fill:none;stroke:#b0453e;stroke-width:3.5px;stroke-linecap:round;stroke-miterlimit:1.5;"/><path d="M489.251,284.167l19.407,14.66l-7.413,23.72l-23.988,0l-7.413,-23.72l19.407,-14.66Z" style="fill:#5656ae;"/><path d="M489.251,367.284l4.783,14.721l9.217,-4.549l-1.478,10.171l15.478,0l-12.522,9.098l7.174,7.36l-10.13,1.738l4.783,14.72l-12.522,-9.098l-4.783,9.098l-4.783,-9.098l-12.522,9.098l4.783,-14.72l-10.13,-1.738l7.174,-7.36l-12.522,-9.098l15.478,0l-1.478,-10.171l9.217,4.549l4.783,-14.721Z" style="fill:#d6a524;"/><text x="152.583px" y="41.446px" style="font-family:'DroidSerif-Bold', 'Droid Serif', serif;font-weight:700;font-size:16px;">Data Elements</text><text x="113.271px" y="283.532px" style="font-family:'DroidSerif-Bold', 'Droid Serif', serif;font-weight:700;font-size:16px;fill:#b0453e;">Concurrent Reduce</text><g transform="matrix(1,0,0,1,-142.697,-40.9416)"><text x="144.867px" y="318.474px" style="font-family:'DroidSerif-Bold', 'Droid Serif', serif;font-weight:700;font-size:16px;fill:#999;">R</text><text x="156.18px" y="318.474px" style="font-family:'DroidSerif-Bold', 'Droid Serif', serif;font-weight:700;font-size:16px;fill:#999;">e</text><text x="165.473px" y="318.474px" style="font-family:'DroidSerif-Bold', 'Droid Serif', serif;font-weight:700;font-size:16px;fill:#999;">duce</text><text x="142.252px" y="334.474px" style="font-family:'DroidSerif-Bold', 'Droid Serif', serif;font-weight:700;font-size:16px;fill:#999;">Identit</text><text x="197.44px" y="334.474px" style="font-family:'DroidSerif-Bold', 'Droid Serif', serif;font-weight:700;font-size:16px;fill:#999;">y</text></g><g transform="matrix(1,0,0,1,386.41,-292.946)"><text x="138.436px" y="318.474px" style="font-family:'DroidSerif-Bold', 'Droid Serif', serif;font-weight:700;font-size:16px;fill:#999;">Combine</text><text x="142.252px" y="334.474px" style="font-family:'DroidSerif-Bold', 'Droid Serif', serif;font-weight:700;font-size:16px;fill:#999;">Identit</text><text x="197.44px" y="334.474px" style="font-family:'DroidSerif-Bold', 'Droid Serif', serif;font-weight:700;font-size:16px;fill:#999;">y</text></g><g transform="matrix(1,0,0,1,264.073,-50.9416)"><text x="154.85px" y="318.474px" style="font-family:'DroidSerif-Bold', 'Droid Serif', serif;font-weight:700;font-size:16px;fill:#1c741d;">Post-</text><text x="144.947px" y="334.474px" style="font-family:'DroidSerif-Bold', 'Droid Serif', serif;font-weight:700;font-size:16px;fill:#1c741d;">Reduce</text></g><g transform="matrix(1,0,0,1,386.414,-169.198)"><text x="131.139px" y="318.474px" style="font-family:'DroidSerif-Bold', 'Droid Serif', serif;font-weight:700;font-size:16px;fill:#5656ae;">Sequential</text><text x="138.516px" y="334.474px" style="font-family:'DroidSerif-Bold', 'Droid Serif', serif;font-weight:700;font-size:16px;fill:#5656ae;">Co</text><text x="159.008px" y="334.474px" style="font-family:'DroidSerif-Bold', 'Droid Serif', serif;font-weight:700;font-size:16px;fill:#5656ae;">m</text><text x="174.621px" y="334.474px" style="font-family:'DroidSerif-Bold', 'Droid Serif', serif;font-weight:700;font-size:16px;fill:#5656ae;">bine</text></g><g transform="matrix(1,0,0,1,386.41,20.9309)"><text x="154.85px" y="318.474px" style="font-family:'DroidSerif-Bold', 'Droid Serif', serif;font-weight:700;font-size:16px;fill:#d6a524;">Post-</text><text x="138.436px" y="334.474px" style="font-family:'DroidSerif-Bold', 'Droid Serif', serif;font-weight:700;font-size:16px;fill:#d6a524;">Combine</text></g></svg>